<?xml version="1.0" encoding="UTF-8"?>
<svg width="1200pt" height="1200pt" version="1.1" viewBox="0 0 1200 1200" xmlns="http://www.w3.org/2000/svg">
 <g>
  <path d="m236.06 1099.2 100.86 100.77h-336.88v-336.71l100.86 100.79 212.34-212.34 135.24 135.16z"/>
  <path d="m886.86 751.74-135.08 135.16 212.35 212.34-100.79 100.77h336.66l0.046875-336.71-100.77 100.79z"/>
  <path d="m751.78 313.29 135.08 135.16 212.41-212.5 100.77 100.77v-336.56l-336.79-0.15625 100.95 100.95z"/>
  <path d="m336.93 0h-336.65l-0.23047 336.88 100.86-100.93 212.41 212.5 135.24-135.31-212.42-212.18z"/>
  <path d="m600.05 453.45c-80.941 0-146.55 65.629-146.55 146.55 0 81.098 65.629 146.72 146.55 146.72 80.941 0 146.65-65.629 146.65-146.72 0-80.941-65.711-146.55-146.65-146.55z"/>
 </g>
</svg>
