<?xml version="1.0" encoding="UTF-8" standalone="no"?>
<svg
   xmlns:dc="http://purl.org/dc/elements/1.1/"
   xmlns:cc="http://creativecommons.org/ns#"
   xmlns:rdf="http://www.w3.org/1999/02/22-rdf-syntax-ns#"
   xmlns:svg="http://www.w3.org/2000/svg"
   xmlns="http://www.w3.org/2000/svg"
   width="64"
   height="64"
   viewBox="0 0 16.933333 16.933334"
   version="1.1"
   id="svg1509">
  <defs
     id="defs1503" />
  <metadata
     id="metadata1506">
    <rdf:RDF>
      <cc:Work
         rdf:about="">
        <dc:format>image/svg+xml</dc:format>
        <dc:type
           rdf:resource="http://purl.org/dc/dcmitype/StillImage" />
        <dc:title></dc:title>
      </cc:Work>
    </rdf:RDF>
  </metadata>
  <g
     id="layer1">
    <g
       id="g845"
       transform="translate(-0.13229163,0.54208032)">
      <path
         style="fill:none;stroke:#000000;stroke-width:0.264583px;stroke-linecap:butt;stroke-linejoin:miter;stroke-opacity:1"
         d="M 1.3229166,14.552083 H 15.875"
         id="path2074" />
      <path
         style="fill:none;stroke:#000000;stroke-width:0.316237px;stroke-linecap:butt;stroke-linejoin:miter;stroke-opacity:1"
         d="M 2.6458333,14.552083 7.9374999,1.3229167 H 14.552083 V 14.552083"
         id="path2076" />
      <path
         style="fill:#ffff00;stroke:#ff0000;stroke-width:0.0539174"
         d="m 10.918281,54.443054 c 0,-0.02228 4.386734,-11.007289 9.748297,-24.411121 L 30.414873,5.6613311 42.395305,5.6477324 54.375737,5.6341338 V 30.058853 54.483572 H 32.647009 c -11.9508,0 -21.728728,-0.01823 -21.728728,-0.04052 z"
         id="path2078"
         transform="scale(0.26458333)" />
    </g>
    <path
       style="fill:none;stroke:#000000;stroke-width:0.264583px;stroke-linecap:butt;stroke-linejoin:miter;stroke-opacity:1"
       d="M 2.38125,15.08125 C 3.2631396,12.964715 4.1450841,10.848048 4.2774499,8.8637475 4.4098157,6.879447 3.7924669,5.0274008 3.175,3.175"
       id="path839" />
    <path
       style="fill:none;stroke:#000000;stroke-width:0.264583px;stroke-linecap:butt;stroke-linejoin:miter;stroke-opacity:1"
       d="m 14.552083,15.08125 c 0,-1.322652 0,-2.645569 -0.705483,-4.585847 C 13.141117,8.5551244 11.730035,5.9975367 10.31875,3.4395833"
       id="path843" />
    <path
       style="fill:none;stroke:#000000;stroke-width:0.264583px;stroke-linecap:butt;stroke-linejoin:miter;stroke-opacity:1"
       d="m 3.175,3.175 7.14375,0.2645833"
       id="path851" />
    <path
       style="fill:#00ff00;stroke:none;stroke-width:0.0203782;fill-opacity:1"
       d="m 15.770851,39.596381 c 0,-0.01317 0.0858,-0.434145 0.190661,-0.935496 0.553141,-2.644556 0.77965,-4.753516 0.7791,-7.253977 -0.0011,-4.885663 -0.86785,-9.230512 -3.397308,-17.02952 -0.322929,-0.995679 -0.582132,-1.813928 -0.576007,-1.818332 0.03237,-0.02328 13.574638,0.501217 13.600157,0.526736 0.02583,0.02583 -10.513559,26.449386 -10.574694,26.512074 -0.01205,0.01236 -0.02191,0.01169 -0.02191,-0.0015 z"
       id="path853"
       transform="scale(0.26458333)" />
    <path
       style="fill:#ff0000;fill-opacity:1;stroke:none;stroke-width:0.0203782"
       d="m 11.048669,56.427525 -0.543581,-0.02988 8.639176,-21.610901 c 4.751548,-11.885995 8.653556,-21.625279 8.67113,-21.642853 0.0266,-0.0266 7.771756,0.237653 10.154243,0.346442 l 0.712687,0.03254 0.819602,1.487933 c 4.012872,7.285092 5.909844,10.853435 7.913791,14.886416 3.622902,7.291161 5.334216,11.789251 6.261941,16.459155 l 0.158905,0.799879 v 4.661131 4.661132 l -21.122157,-0.01055 c -11.617186,-0.0058 -21.366768,-0.024 -21.665737,-0.04044 z"
       id="path855"
       transform="scale(0.26458333)" />
    <path
       style="fill:#ff0000;fill-opacity:1;stroke:none;stroke-width:0.0203782"
       d="m 15.880325,39.220586 c -9.02e-4,-0.01722 0.08152,-0.443246 0.183148,-0.946725 0.229385,-1.136348 0.427554,-2.416064 0.554067,-3.577989 0.139741,-1.283409 0.138985,-5.383387 -0.0012,-6.712721 -0.346824,-3.287969 -0.995044,-6.258956 -2.335129,-10.702612 -0.262953,-0.87194 -1.211422,-3.89384 -1.453302,-4.630344 -0.02042,-0.06217 0.13223,-0.06845 0.933591,-0.03842 9.860248,0.369517 12.40247,0.475771 12.476396,0.521461 0.04461,0.02757 -0.04385,0.313004 -0.301978,0.974362 -1.180533,3.024662 -9.920008,24.913454 -10.007,25.063419 -0.0258,0.04448 -0.04765,0.06679 -0.04856,0.04957 z"
       id="path857"
       transform="scale(0.26458333)" />
  </g>
</svg>
