<?xml version="1.0" encoding="UTF-8" standalone="no"?>
<svg
   xmlns:dc="http://purl.org/dc/elements/1.1/"
   xmlns:cc="http://creativecommons.org/ns#"
   xmlns:rdf="http://www.w3.org/1999/02/22-rdf-syntax-ns#"
   xmlns:svg="http://www.w3.org/2000/svg"
   xmlns="http://www.w3.org/2000/svg"
   xmlns:sodipodi="http://sodipodi.sourceforge.net/DTD/sodipodi-0.dtd"
   xmlns:inkscape="http://www.inkscape.org/namespaces/inkscape"
   width="64mm"
   height="64mm"
   viewBox="0 0 64 64"
   version="1.1"
   id="svg894"
   inkscape:version="1.0.1 (3bc2e813f5, 2020-09-07)"
   sodipodi:docname="Rocket_CenteringRing.svg">
  <defs
     id="defs888" />
  <sodipodi:namedview
     id="base"
     pagecolor="#ffffff"
     bordercolor="#666666"
     borderopacity="1.0"
     inkscape:pageopacity="0.0"
     inkscape:pageshadow="2"
     inkscape:zoom="2.8"
     inkscape:cx="83.872835"
     inkscape:cy="117.88446"
     inkscape:document-units="mm"
     inkscape:current-layer="layer1"
     inkscape:document-rotation="0"
     showgrid="false"
     inkscape:window-width="2560"
     inkscape:window-height="1377"
     inkscape:window-x="1272"
     inkscape:window-y="-8"
     inkscape:window-maximized="1" />
  <metadata
     id="metadata891">
    <rdf:RDF>
      <cc:Work
         rdf:about="">
        <dc:format>image/svg+xml</dc:format>
        <dc:type
           rdf:resource="http://purl.org/dc/dcmitype/StillImage" />
        <dc:title />
      </cc:Work>
    </rdf:RDF>
  </metadata>
  <g
     inkscape:label="Layer 1"
     inkscape:groupmode="layer"
     id="layer1">
    <path
       id="path1457"
       style="fill:#ffff00;stroke:#000000;stroke-width:2.13543;stroke-miterlimit:4;stroke-dasharray:none;stroke-opacity:1"
       d="M 120.94531 15.408203 A 104.46429 105.53571 0 0 0 16.480469 120.94531 A 104.46429 105.53571 0 0 0 120.94531 226.48047 A 104.46429 105.53571 0 0 0 225.4082 120.94531 A 104.46429 105.53571 0 0 0 120.94531 15.408203 z M 120.94531 72.195312 A 49.464287 48.750002 0 0 1 170.4082 120.94531 A 49.464287 48.750002 0 0 1 120.94531 169.69531 A 49.464287 48.750002 0 0 1 71.480469 120.94531 A 49.464287 48.750002 0 0 1 120.94531 72.195312 z "
       transform="scale(0.26458333)" />
  </g>
</svg>
