<?xml version="1.0" encoding="UTF-8" standalone="no"?>
<svg
   xmlns:dc="http://purl.org/dc/elements/1.1/"
   xmlns:cc="http://creativecommons.org/ns#"
   xmlns:rdf="http://www.w3.org/1999/02/22-rdf-syntax-ns#"
   xmlns:svg="http://www.w3.org/2000/svg"
   xmlns="http://www.w3.org/2000/svg"
   width="64"
   height="64"
   viewBox="0 0 16.933333 16.933334"
   version="1.1"
   id="svg904">
  <defs
     id="defs898" />
  <metadata
     id="metadata901">
    <rdf:RDF>
      <cc:Work
         rdf:about="">
        <dc:format>image/svg+xml</dc:format>
        <dc:type
           rdf:resource="http://purl.org/dc/dcmitype/StillImage" />
        <dc:title></dc:title>
      </cc:Work>
    </rdf:RDF>
  </metadata>
  <g
     id="g2299">
    <path
       style="fill:#ffff00;stroke:#000000;stroke-width:0.554446;stroke-miterlimit:4;stroke-dasharray:none;stroke-opacity:1"
       id="path862"
       d="m 13.685421,1.39502 a 1.7418928,7.0291886 0 0 1 1.741892,7.0291886 1.7418928,7.0291886 0 0 1 -1.741892,7.0291884 V 8.4242086 Z" />
    <rect
       style="fill:#ffff00;fill-opacity:1;stroke-width:0.071108"
       id="rect1636"
       width="4.572988"
       height="13.46893"
       x="9.5686121"
       y="1.7468317" />
    <path
       style="fill:#ff0000;stroke:#000000;stroke-width:0.462704;stroke-miterlimit:4;stroke-dasharray:none;stroke-opacity:1;fill-opacity:1"
       id="path862-0"
       d="m 13.572442,3.6120056 a 1.7915345,4.7598332 0 0 1 1.791535,4.7598333 1.7915345,4.7598332 0 0 1 -1.791535,4.7598341 V 8.3718389 Z" />
    <rect
       style="fill:#000000;fill-opacity:1;stroke:#000000;stroke-width:0.0669377;stroke-opacity:1"
       id="rect871-3"
       width="10.939588"
       height="0.58754998"
       x="2.5688915"
       y="1.1592817" />
    <rect
       style="fill:#000000;fill-opacity:1;stroke:#000000;stroke-width:0.060626;stroke-opacity:1"
       id="rect871-3-7"
       width="11.015015"
       height="0.47866908"
       x="2.5761259"
       y="15.2792" />
    <ellipse
       style="fill:#ffff00;stroke:#000000;stroke-width:0.574561;stroke-miterlimit:4;stroke-dasharray:none;stroke-opacity:1"
       id="path854"
       cx="2.5666006"
       cy="8.4570179"
       rx="1.5460418"
       ry="7.0486016" />
    <path
       style="fill:#ff0000;fill-opacity:1;stroke-width:0.00615712"
       d="m 44.278076,48.414131 c 0,-0.03058 0.08312,-0.536233 0.184718,-1.123674 0.484622,-2.802194 0.799216,-5.711168 1.051055,-9.718831 0.10546,-1.678245 0.143983,-7.514439 0.063,-9.543536 -0.1821,-4.562386 -0.636999,-8.95018 -1.267087,-12.221884 -0.08478,-0.440234 -0.154303,-0.835059 -0.154488,-0.877389 -2.63e-4,-0.06056 0.662403,-0.07696 3.109011,-0.07696 h 3.109346 v 16.808938 16.808938 h -3.047775 c -1.772519,0 -3.047775,-0.02326 -3.047775,-0.0556 z"
       id="path1624"
       transform="scale(0.26458334)" />
    <path
       style="fill:#ff0000;fill-opacity:1;stroke-width:0.00615712"
       d="M 39.044524,31.660791 V 14.851853 h 1.438423 1.438424 l 0.07184,0.354034 c 0.989488,4.876604 1.484481,10.468105 1.48394,16.76276 -3.88e-4,4.488698 -0.223482,8.282785 -0.70961,12.067956 -0.148549,1.156655 -0.524125,3.535985 -0.653603,4.140663 l -0.06262,0.292463 h -1.503392 -1.503393 z"
       id="path1626"
       transform="scale(0.26458334)" />
    <rect
       style="fill:#ff0000;fill-opacity:1;stroke-width:0.0264583"
       id="rect1630"
       width="4.5125279"
       height="8.8784389"
       x="9.3508701"
       y="3.942353" />
    <path
       style="fill:#ffff00;fill-opacity:1;stroke-width:0.00615712"
       d="m 16.203649,21.586467 c -0.007,-0.237228 -0.21819,-2.118174 -0.372447,-3.317413 C 15.250266,13.752696 14.341919,9.9224729 13.312396,7.6480218 13.136119,7.2585839 12.976877,6.9053192 12.958525,6.862989 12.931897,6.8015671 15.344849,6.786025 24.907346,6.786025 H 36.889532 V 9.7414427 12.69686 h -7.430351 c -4.356208,0 -7.508581,0.02349 -7.619436,0.05676 -0.103997,0.03122 -0.344806,0.10077 -0.53513,0.154556 -1.222279,0.345416 -2.383336,1.547611 -3.334037,3.452167 -0.267991,0.536871 -0.840241,1.982652 -1.060108,2.678347 -0.09097,0.287846 -0.286761,0.994375 -0.435091,1.570066 -0.148329,0.575691 -0.270608,1.015659 -0.27173,0.977707 z"
       id="path1632"
       transform="scale(0.26458334)" />
    <path
       style="fill:#ffff00;fill-opacity:1;stroke-width:0.00615712"
       d="m 12.703488,57.536089 c 0.01194,-0.0254 0.191222,-0.392517 0.398413,-0.815819 0.841322,-1.718859 1.54613,-4.114754 2.144373,-7.289499 0.349521,-1.854829 0.799192,-5.171916 0.927391,-6.841092 0.02081,-0.270913 0.0516,-0.53413 0.06842,-0.584926 0.01682,-0.0508 0.121622,0.267835 0.232887,0.708069 0.845618,3.345787 2.064147,5.768591 3.50719,6.973355 0.363605,0.303565 0.999131,0.650187 1.376035,0.750502 0.143923,0.03831 0.261678,0.09629 0.261678,0.128844 0,0.03757 2.79004,0.0592 7.634829,0.0592 h 7.634829 v 3.478773 3.478773 H 24.78566 c -6.65713,0 -12.094107,-0.02078 -12.082172,-0.04618 z"
       id="path1634"
       transform="scale(0.26458334)" />
    <rect
       style="fill:#000000;fill-opacity:1;stroke:#000000;stroke-width:0.0449731;stroke-opacity:1"
       id="rect871-8"
       width="5.724494"
       height="0.5068481"
       x="7.894084"
       y="12.850996" />
    <rect
       style="fill:#000000;fill-opacity:1;stroke:#000000;stroke-width:0.042781;stroke-opacity:1"
       id="rect871"
       width="5.1800108"
       height="0.5068481"
       x="8.3761988"
       y="3.3879068" />
    <path
       style="fill:#ff0000;fill-opacity:1;stroke-width:0.00213682"
       d="M 8.4920368,8.3769178 V 3.9295529 h 1.1608504 1.1608508 l 0.03104,0.084136 c 0.250653,0.6793071 0.485015,1.7563669 0.58962,2.7097215 0.08751,0.7975418 0.112195,2.0174041 0.0567,2.802003 -0.08099,1.1451166 -0.272213,2.2004856 -0.564514,3.1155986 l -0.05854,0.183271 H 9.6800454 8.4920382 Z"
       id="path1638" />
    <ellipse
       style="fill:#ff0000;fill-opacity:1;stroke:#000000;stroke-width:0.482137;stroke-miterlimit:4;stroke-dasharray:none;stroke-opacity:1"
       id="path854-0"
       cx="8.4742336"
       cy="8.4914408"
       rx="1.5922539"
       ry="4.8192649" />
    <ellipse
       style="fill:#000000;fill-opacity:1;stroke:#000000;stroke-width:0.24008;stroke-miterlimit:4;stroke-dasharray:none;stroke-opacity:1"
       id="path854-0-4"
       cx="8.3860321"
       cy="8.2593193"
       rx="0.8608557"
       ry="2.2102251" />
    <path
       style="fill:#ffff00;fill-opacity:1;stroke-width:0.00870748"
       d="m 20.936873,50.203059 c -1.835974,-0.896061 -3.211219,-3.160603 -4.310616,-7.098055 l -0.355276,-1.272412 0.146302,-1.977521 c 0.30577,-4.132989 0.267016,-12.34925 -0.07935,-16.823778 l -0.104476,-1.34966 0.366403,-1.34966 c 0.801727,-2.953191 1.718069,-4.877429 2.930509,-6.153813 0.692048,-0.728546 1.128334,-1.017193 1.900919,-1.257649 0.48931,-0.15229 0.869788,-0.164048 5.308446,-0.164048 4.192046,0 4.781358,0.0161 4.781358,0.130612 0,0.07184 -0.07358,0.130612 -0.163516,0.130612 -0.239583,0 -0.778004,0.241648 -1.227719,0.55101 -2.434762,1.674892 -4.229622,6.788442 -4.895389,13.946949 -0.172813,1.858131 -0.144703,7.792214 0.04558,9.621769 0.630182,6.059213 1.932419,10.280224 3.891377,12.613327 0.286604,0.341343 0.521098,0.660128 0.521098,0.708411 0,0.05774 -1.378151,0.08751 -4.027211,0.08696 l -4.027211,-7.84e-4 -0.701222,-0.342236 z"
       id="path2280"
       transform="scale(0.26458334)" />
  </g>
</svg>
