<?xml version="1.0" encoding="UTF-8" standalone="no"?>
<svg
   xmlns:dc="http://purl.org/dc/elements/1.1/"
   xmlns:cc="http://creativecommons.org/ns#"
   xmlns:rdf="http://www.w3.org/1999/02/22-rdf-syntax-ns#"
   xmlns:svg="http://www.w3.org/2000/svg"
   xmlns="http://www.w3.org/2000/svg"
   width="64mm"
   height="64mm"
   viewBox="0 0 64 64"
   version="1.1"
   id="svg894">
  <defs
     id="defs888" />
  <metadata
     id="metadata891">
    <rdf:RDF>
      <cc:Work
         rdf:about="">
        <dc:format>image/svg+xml</dc:format>
        <dc:type
           rdf:resource="http://purl.org/dc/dcmitype/StillImage" />
        <dc:title></dc:title>
      </cc:Work>
    </rdf:RDF>
  </metadata>
  <g
     id="layer1">
    <path
       id="path1457"
       style="fill:#ffff00;stroke:#000000;stroke-width:2.13543;stroke-miterlimit:4;stroke-dasharray:none;stroke-opacity:1"
       d="M 120.94531 15.408203 A 104.46429 105.53571 0 0 0 16.480469 120.94531 A 104.46429 105.53571 0 0 0 120.94531 226.48047 A 104.46429 105.53571 0 0 0 225.4082 120.94531 A 104.46429 105.53571 0 0 0 120.94531 15.408203 z M 120.94531 72.195312 A 49.464287 48.750002 0 0 1 170.4082 120.94531 A 49.464287 48.750002 0 0 1 120.94531 169.69531 A 49.464287 48.750002 0 0 1 71.480469 120.94531 A 49.464287 48.750002 0 0 1 120.94531 72.195312 z "
       transform="scale(0.26458333)" />
  </g>
</svg>
