<?xml version="1.0" encoding="UTF-8" standalone="no"?>
<svg
   width="1200pt"
   height="1200pt"
   version="1.1"
   viewBox="0 0 1200 1200"
   id="svg14"
   xmlns="http://www.w3.org/2000/svg"
   xmlns:svg="http://www.w3.org/2000/svg">
  <defs
     id="defs18" />
  <g
     id="g4244">
    <path
       d="M 212.46,852.48 111.6,751.71 h 336.88 v 336.71 L 347.62,987.63 135.28,1199.97 0.04,1064.81 Z"
       id="path2" />
    <path
       d="m 1064.967,1200.01 135.08,-135.16 -212.35,-212.34 100.79,-100.77 h -336.66 l -0.047,336.71 100.77,-100.79 z"
       id="path4" />
    <path
       d="M 1200.04,135.16376 1064.96,0.0037575 852.54999,212.50376 l -100.77,-100.77 v 336.56003 l 336.79001,0.1562 -100.95002,-100.95 z"
       id="path6" />
    <path
       d="m 111.67906,448.45 h 336.65 l 0.23047,-336.88 -100.86,100.93 -212.41,-212.5 -135.24,135.31 212.42,212.18 z"
       id="path8" />
    <path
       d="m 600.05,453.45 c -80.941,0 -146.55,65.629 -146.55,146.55 0,81.098 65.629,146.72 146.55,146.72 80.941,0 146.65,-65.629 146.65,-146.72 0,-80.941 -65.711,-146.55 -146.65,-146.55 z"
       id="path10" />
  </g>
</svg>
