<?xml version="1.0" encoding="UTF-8" standalone="no"?>
<svg
   xmlns:dc="http://purl.org/dc/elements/1.1/"
   xmlns:cc="http://creativecommons.org/ns#"
   xmlns:rdf="http://www.w3.org/1999/02/22-rdf-syntax-ns#"
   xmlns:svg="http://www.w3.org/2000/svg"
   xmlns="http://www.w3.org/2000/svg"
   width="64"
   height="64"
   viewBox="0 0 16.933333 16.933334"
   version="1.1"
   id="svg1509">
  <defs
     id="defs1503" />
  <metadata
     id="metadata1506">
    <rdf:RDF>
      <cc:Work
         rdf:about="">
        <dc:format>image/svg+xml</dc:format>
        <dc:type
           rdf:resource="http://purl.org/dc/dcmitype/StillImage" />
        <dc:title></dc:title>
      </cc:Work>
    </rdf:RDF>
  </metadata>
  <g
     id="layer1">
    <g
       id="g866"
       transform="translate(0.09719092,0.13931352)">
      <g
         id="g849"
         transform="translate(-0.62635711,0.91901997)">
        <path
           style="fill:none;stroke:#000000;stroke-width:0.264583px;stroke-linecap:butt;stroke-linejoin:miter;stroke-opacity:1"
           d="M 1.3229166,14.552083 H 15.875"
           id="path2074" />
        <path
           style="fill:none;stroke:#000000;stroke-width:0.264583px;stroke-linecap:butt;stroke-linejoin:miter;stroke-opacity:1"
           d="M 1.8520833,14.552083 3.96875,13.229167 H 15.875 v 1.322916"
           id="path842" />
        <path
           style="fill:none;stroke:#000000;stroke-width:0.264583px;stroke-linecap:butt;stroke-linejoin:miter;stroke-opacity:1"
           d="M 5.8208333,13.229167 10.583333,0.26458333 h 4.7625 L 15.610416,13.229167"
           id="path844" />
      </g>
      <path
         style="fill:#ffff00;stroke:#ff0000;stroke-width:0.0142656"
         d="m 5.4008817,13.99954 c 0,-0.003 1.0374865,-2.829253 2.3055257,-6.2804543 1.2680394,-3.4512011 2.3150286,-6.302194 2.3266426,-6.33554 l 0.02112,-0.060629 h 2.266898 2.266898 v 0.1298356 c 0,0.1816744 0.238775,11.9572287 0.249102,12.2848507 l 0.0084,0.267482 H 10.12316 c -2.597269,0 -4.7223073,-0.0025 -4.7223073,-0.0055 z"
         id="path851" />
      <path
         style="fill:#ffff00;stroke:#ff0000;stroke-width:0.0142656"
         d="m 2.5477505,14.811094 0.8332502,-0.520697 h 5.8673962 5.8673961 v 0.520697 0.520697 H 8.4151468 1.7145004 Z"
         id="path853" />
      <path
         style="fill:none;stroke:#000000;stroke-width:0.264583px;stroke-linecap:butt;stroke-linejoin:miter;stroke-opacity:1"
         d="m 15.248642,15.471103 h 0.79375"
         id="path857" />
    </g>
  </g>
</svg>
