<?xml version="1.0" encoding="UTF-8" standalone="no"?>
<svg
   xmlns:dc="http://purl.org/dc/elements/1.1/"
   xmlns:cc="http://creativecommons.org/ns#"
   xmlns:rdf="http://www.w3.org/1999/02/22-rdf-syntax-ns#"
   xmlns:svg="http://www.w3.org/2000/svg"
   xmlns="http://www.w3.org/2000/svg"
   width="64"
   height="64"
   viewBox="0 0 16.933333 16.933334"
   version="1.1"
   id="svg2086">
  <defs
     id="defs2080" />
  <metadata
     id="metadata2083">
    <rdf:RDF>
      <cc:Work
         rdf:about="">
        <dc:format>image/svg+xml</dc:format>
        <dc:type
           rdf:resource="http://purl.org/dc/dcmitype/StillImage" />
        <dc:title></dc:title>
      </cc:Work>
    </rdf:RDF>
  </metadata>
  <g
     id="layer1">
    <g
       id="g2045">
      <path
         style="fill:none;stroke:#000000;stroke-width:0.264583px;stroke-linecap:butt;stroke-linejoin:miter;stroke-opacity:1"
         d="M 1.3229166,8.4666666 3.96875,6.6145832 H 15.875 v 1.8520834"
         id="path2655" />
      <path
         style="fill:none;stroke:#000000;stroke-width:0.264583px;stroke-linecap:butt;stroke-linejoin:miter;stroke-opacity:1"
         d="M 5.2916667,6.6145833 V 8.4666667"
         id="path2657" />
      <path
         style="fill:none;stroke:#000000;stroke-width:0.264583px;stroke-linecap:butt;stroke-linejoin:miter;stroke-opacity:1"
         d="M 1.3229166,8.4666666 3.96875,10.31875 H 15.875 V 8.4666666"
         id="path2655-5" />
      <path
         style="fill:none;stroke:#000000;stroke-width:0.264583px;stroke-linecap:butt;stroke-linejoin:miter;stroke-opacity:1"
         d="M 5.2916667,10.31875 V 8.4666667"
         id="path2657-3" />
      <path
         style="fill:#ff0000;stroke:#ff0000;stroke-width:0.0631345"
         d="m 10.161089,34.957785 -4.2163088,-2.95807 4.1847418,-2.928522 c 2.301608,-1.610688 4.220255,-2.949865 4.26366,-2.975949 0.06291,-0.03781 0.07892,1.157043 0.07892,5.890945 0,3.266105 -0.02131,5.936413 -0.04735,5.934019 -0.02604,-0.0024 -1.94469,-1.335485 -4.26366,-2.962423 z"
         id="path2696"
         transform="scale(0.26458333)" />
      <path
         style="fill:none;stroke:#000000;stroke-width:0.264583px;stroke-linecap:butt;stroke-linejoin:miter;stroke-opacity:1"
         d="M 4.2333333,6.3499999 H 15.875"
         id="path2702" />
      <path
         style="fill:none;stroke:#000000;stroke-width:0.264583px;stroke-linecap:butt;stroke-linejoin:miter;stroke-opacity:1"
         d="M 4.2333333,10.583333 H 15.875"
         id="path2704" />
      <path
         style="fill:none;stroke:#000000;stroke-width:0.264583px;stroke-linecap:butt;stroke-linejoin:miter;stroke-opacity:1"
         d="M 15.875,6.3499999 V 10.583333"
         id="path2706" />
      <path
         style="fill:#ff0000;stroke:#ff0000;stroke-width:0.0631345"
         d="m 14.86518,38.247808 -0.332967,-0.240892 -0.01427,-6.000531 -0.01427,-6.000531 0.326038,-0.22783 0.326037,-0.227831 h 2.151993 2.151993 v 6.47129 6.471289 l -2.13079,-0.002 -2.130791,-0.002 z"
         id="path2712"
         transform="scale(0.26458333)" />
      <path
         style="fill:#ffffff;stroke:#ff0000;stroke-width:0.0631345"
         d="m 20.533015,32.021483 v -6.47129 h 19.477004 19.477004 v 6.47129 6.471289 H 40.010019 20.533015 Z"
         id="path2714"
         transform="scale(0.26458333)" />
    </g>
  </g>
</svg>
