<?xml version="1.0" encoding="UTF-8" standalone="no"?>
<svg
   width="64"
   height="64"
   viewBox="0 0 16.933333 16.933334"
   version="1.1"
   id="svg904"
   xmlns="http://www.w3.org/2000/svg"
   xmlns:svg="http://www.w3.org/2000/svg"
   xmlns:rdf="http://www.w3.org/1999/02/22-rdf-syntax-ns#"
   xmlns:cc="http://creativecommons.org/ns#"
   xmlns:dc="http://purl.org/dc/elements/1.1/">
  <defs
     id="defs898" />
  <metadata
     id="metadata901">
    <rdf:RDF>
      <cc:Work
         rdf:about="">
        <dc:format>image/svg+xml</dc:format>
        <dc:type
           rdf:resource="http://purl.org/dc/dcmitype/StillImage" />
      </cc:Work>
    </rdf:RDF>
  </metadata>
  <path
     style="fill:#ff0000;fill-opacity:1;stroke:#000000;stroke-width:0.462704;stroke-miterlimit:4;stroke-dasharray:none;stroke-opacity:1"
     id="path862-0"
     d="M 2.7561652,3.6120056 A 1.7915345,4.7598332 0 0 0 0.96463022,8.3718389 1.7915345,4.7598332 0 0 0 2.7561652,13.131673 V 8.3718389 Z" />
  <rect
     style="fill:#000000;fill-opacity:1;stroke:#000000;stroke-width:0.0555938;stroke-opacity:1"
     id="rect871-3"
     width="7.4029946"
     height="0.59889388"
     x="-13.765388"
     y="1.1536098"
     transform="scale(-1,1)" />
  <rect
     style="fill:#000000;fill-opacity:1;stroke:#000000;stroke-width:0.0502552;stroke-opacity:1"
     id="rect871-3-7"
     width="7.4083333"
     height="0.48903987"
     x="-13.757667"
     y="15.274014"
     transform="scale(-1,1)" />
  <ellipse
     style="fill:#ff0000;fill-opacity:1;stroke:#000000;stroke-width:0.478984;stroke-miterlimit:4;stroke-dasharray:none;stroke-opacity:1"
     id="path854-0"
     cx="-10.45773"
     cy="8.3762484"
     rx="1.5938306"
     ry="4.7517262"
     transform="scale(-1,1)" />
  <ellipse
     style="fill:#ffff00;stroke:#000000;stroke-width:0.574561;stroke-miterlimit:4;stroke-dasharray:none;stroke-opacity:1"
     id="path854"
     cx="-13.762007"
     cy="8.4570179"
     rx="1.5460418"
     ry="7.0486016"
     transform="scale(-1,1)" />
  <path
     style="fill:#ff0000;fill-opacity:1;stroke-width:0.00162907"
     d="m 9.5630279,12.812026 c -0.00299,-0.0067 -0.04806,-0.083 -0.1001628,-0.169466 -0.4378484,-0.726618 -0.7429908,-2.020219 -0.8255958,-3.4999787 -0.020447,-0.3662564 -0.020447,-1.1650705 0,-1.5313272 C 8.703482,6.425141 8.9033382,5.391452 9.2181448,4.6068714 9.295478,4.414137 9.4381609,4.1335527 9.5174145,4.0183616 c 0.026581,-0.038634 0.048329,-0.07442 0.048329,-0.079526 0,-0.00511 -0.6744356,-0.00928 -1.4987458,-0.00928 H 6.5682516 v 4.447365 4.4473654 h 1.5001032 c 0.8250568,0 1.4976597,-0.0055 1.4946731,-0.01226 z"
     id="path1622" />
  <path
     style="fill:#ff0000;fill-opacity:1;stroke-width:0.00162907"
     d="m 4.613366,12.809572 c 0,-0.0081 -0.021992,-0.141878 -0.048873,-0.297305 C 4.4362698,11.770853 4.3530334,11.001187 4.286401,9.9408263 4.2584981,9.4967906 4.2483055,7.9526309 4.2697323,7.4157657 4.3179129,6.2086343 4.4382716,5.0476971 4.6049824,4.1820588 4.6274138,4.0655802 4.6458084,3.9611161 4.6458573,3.9499163 4.6459269,3.9338931 4.4705965,3.9295539 3.8232648,3.9295539 H 3.0005837 v 4.447365 4.4473651 h 0.8063905 c 0.468979,0 0.8063905,-0.0062 0.8063905,-0.01471 z"
     id="path1624" />
  <path
     style="fill:#ff0000;fill-opacity:1;stroke-width:0.00162907"
     d="M 5.9980766,8.3769178 V 3.9295529 H 5.6174939 5.2369109 l -0.019008,0.093672 C 4.9561009,5.313493 4.825134,6.7929111 4.8252771,8.4583719 c 1.026e-4,1.1876347 0.05913,2.1914871 0.187751,3.1929811 0.039304,0.306031 0.1386747,0.935561 0.1729324,1.095549 l 0.016568,0.07738 H 5.600301 5.9980738 Z"
     id="path1626" />
  <rect
     style="fill:#ff0000;fill-opacity:1;stroke-width:0.0264583"
     id="rect1630"
     width="4.5125279"
     height="8.8784389"
     x="-6.9777369"
     y="3.942353"
     transform="scale(-1,1)" />
  <path
     style="fill:#ffff00;stroke:#000000;stroke-width:0.554446;stroke-miterlimit:4;stroke-dasharray:none;stroke-opacity:1"
     id="path862"
     d="m 6.2602382,1.4180585 a 1.7418928,7.0291886 0 0 0 -1.741892,7.0291886 1.7418928,7.0291886 0 0 0 1.741892,7.0291889 V 8.4472471 Z" />
  <path
     style="fill:#ffff00;fill-opacity:1;stroke-width:0.00162907"
     d="m 12.041392,5.7114195 c 0.0019,-0.062766 0.05773,-0.5604335 0.09854,-0.8777322 0.153706,-1.1949531 0.394039,-2.2083663 0.666434,-2.8101481 0.04664,-0.1030388 0.08877,-0.1965068 0.09363,-0.2077066 0.007,-0.016251 -0.631381,-0.020363 -3.1614586,-0.020363 H 6.5682516 V 2.5774238 3.359378 h 1.9659471 c 1.1525801,0 1.9866453,0.00622 2.0159763,0.015018 0.02752,0.00826 0.09123,0.026662 0.141586,0.040893 0.323395,0.091391 0.630591,0.4094721 0.882131,0.9133859 0.07091,0.1420471 0.222313,0.5245767 0.280487,0.708646 0.02407,0.076159 0.07587,0.263095 0.115117,0.4154133 0.03925,0.1523182 0.0716,0.2687264 0.0719,0.258685 z"
     id="path1632" />
  <path
     style="fill:#ffff00;fill-opacity:1;stroke-width:0.00162907"
     d="m 12.967476,15.223091 c -0.0032,-0.0067 -0.05059,-0.103854 -0.105414,-0.215853 -0.222599,-0.454781 -0.40908,-1.088695 -0.567365,-1.92868 -0.09248,-0.490756 -0.211453,-1.368402 -0.245372,-1.810038 -0.0055,-0.07168 -0.01365,-0.141322 -0.0181,-0.154762 -0.0045,-0.01344 -0.03218,0.07086 -0.06162,0.187343 -0.223736,0.88524 -0.546139,1.526273 -0.927944,1.845034 -0.0962,0.08032 -0.264353,0.172028 -0.364076,0.19857 -0.03808,0.01014 -0.06924,0.02548 -0.06924,0.03409 0,0.0099 -0.7381976,0.01566 -2.0200481,0.01566 H 6.5682514 v 0.920426 0.920425 h 3.2024831 c 1.7613655,0 3.1998995,-0.0055 3.1967415,-0.01222 z"
     id="path1634" />
  <rect
     style="fill:#ffff00;fill-opacity:1;stroke-width:0.0264583"
     id="rect1636"
     width="0.6331206"
     height="13.46893"
     x="-6.5682511"
     y="1.7954692"
     transform="scale(-1,1)" />
  <rect
     style="fill:#000000;fill-opacity:1;stroke:#000000;stroke-width:0.0527355;stroke-opacity:1"
     id="rect871-8"
     width="7.8711262"
     height="0.5068481"
     x="-10.581156"
     y="12.850996"
     transform="scale(-1,1)" />
  <rect
     style="fill:#000000;fill-opacity:1;stroke:#000000;stroke-width:0.0522475;stroke-opacity:1"
     id="rect871"
     width="7.7261024"
     height="0.5068481"
     x="-10.4985"
     y="3.3879068"
     transform="scale(-1,1)" />
  <path
     style="fill:#ff0000;fill-opacity:1;stroke-width:0.00162907"
     d="M 6.5682516,8.3769178 V 3.9295529 H 5.8935369 5.2188221 l -0.018045,0.084136 c -0.145685,0.679307 -0.281902,1.7563668 -0.3427012,2.7097214 -0.050862,0.7975418 -0.06521,2.0174041 -0.032957,2.802003 0.047074,1.1451167 0.1582166,2.2004857 0.3281095,3.1155987 l 0.034025,0.183271 h 0.6904987 0.690499 z"
     id="path1638" />
  <path
     style="fill:#fffc00;stroke:#ff0000;stroke-width:0.0435864"
     d="M 2.3326531,12.680879 C 1.3034028,11.727974 0.88404461,8.3121153 1.4922272,5.8352361 1.7060983,4.9642267 2.0462111,4.270437 2.3865411,4.0109429 l 0.087045,-0.06637 h 1.0604937 c 0.5832716,0 1.0666743,0.00614 1.0742282,0.013653 0.00755,0.00751 -0.010959,0.1497094 -0.041139,0.3160016 -0.2677485,1.4752747 -0.3861369,3.4143057 -0.3171788,5.194928 0.0473,1.2213755 0.175268,2.4544585 0.3398163,3.2744315 l 0.012028,0.05993 H 3.5334758 2.4651186 Z"
     id="path1" />
  <path
     style="fill:#fffc00;stroke:#ffff00;stroke-width:0.0435864;stroke-opacity:1"
     d="M 6.5815532,8.3685975 V 3.9336767 l 1.3348348,1.547e-4 c 0.7341593,8.52e-5 1.3995459,0.00627 1.4786373,0.01374 L 9.5388276,3.961155 9.4646702,4.0836229 C 8.6220636,5.4751575 8.3532284,8.6996135 8.8821096,11.070956 c 0.1447636,0.649077 0.3792577,1.281708 0.6113769,1.649409 l 0.052492,0.08315 H 8.0637657 6.5815532 Z"
     id="path2" />
  <path
     style="fill:#fffc00;stroke:#ffff00;stroke-width:0.0435864;stroke-opacity:1"
     d="M 5.8819573,12.808982 5.1932579,12.802915 5.1467222,12.53625 C 4.7443587,10.23058 4.7072443,7.4133757 5.0473146,4.9906482 5.0980836,4.6289607 5.1956492,4.0570831 5.2205288,3.9753597 c 0.00934,-0.030674 0.1257964,-0.036256 1.027815,-0.049271 1.0877765,-0.015695 3.2346716,0.00428 3.2770771,0.030484 0.014076,0.0087 0.018079,0.027981 0.00889,0.042847 -0.012599,0.020386 -0.021585,0.018307 -0.036565,-0.00846 -0.018037,-0.032229 -0.151842,-0.035488 -1.45713,-0.035488 H 6.6033464 v 4.413429 4.4134293 l 1.470805,-0.0058 c 1.1608086,-0.0045 1.4730074,-8e-6 1.4812553,0.02149 0.010189,0.02656 -1.4158974,0.0308 -3.6734494,0.01091 z"
     id="path3" />
  <path
     style="fill:#fffc00;stroke:#ff0000;stroke-width:0.0435864"
     d="m 10.408888,12.805208 -0.193514,-0.01259 -0.122487,-0.133336 C 9.6735881,12.20285 9.33314,11.121955 9.1876255,9.7851571 8.9297182,7.4158376 9.3747365,4.7631804 10.151922,4.0371946 c 0.106537,-0.099518 0.115837,-0.1035177 0.240695,-0.1035177 0.0723,0 0.133299,-0.010263 0.137595,-0.023154 0.01345,-0.040348 0.120683,0.015804 0.235778,0.1234602 0.492675,0.4608399 0.88716,1.7938285 1.002234,3.3866083 0.031,0.429048 0.03119,1.508615 3.44e-4,1.9069069 -0.110632,1.4283567 -0.3969,2.5382847 -0.818057,3.1717937 -0.10061,0.151339 -0.279381,0.329187 -0.323933,0.32226 -0.0133,-0.0021 -0.111255,-0.0094 -0.217688,-0.01635 z"
     id="path4" />
  <path
     style="fill:#ff0000;fill-opacity:1;stroke:#ff0000;stroke-width:0.0435864"
     d="M 11.938387,5.3012013 C 11.738105,4.5602005 11.453695,3.9881615 11.133062,3.6814335 c -0.165945,-0.1587487 -0.284433,-0.22992 -0.48392,-0.2906742 -0.146748,-0.044692 -0.184174,-0.0455 -2.1084944,-0.0455 H 6.5815532 V 2.569241 1.7932223 l 3.1364085,0.00781 c 1.7250243,0.00429 3.1422573,0.013657 3.1494063,0.020806 0.0071,0.00715 -0.02208,0.089962 -0.06494,0.184029 -0.306013,0.6715005 -0.579271,1.9144476 -0.731656,3.3280267 -0.01518,0.1408388 -0.03362,0.2560704 -0.04097,0.2560704 -0.0074,0 -0.04849,-0.1299422 -0.09141,-0.2887602 z"
     id="path5" />
  <path
     style="fill:#ff0000;fill-opacity:1;stroke:#ff0000;stroke-width:0.0435864"
     d="m 5.3701893,3.3071214 c 0.0066,-0.020976 0.036698,-0.1208411 0.066893,-0.2219225 C 5.5596365,2.6749291 5.6938634,2.352951 5.8486245,2.0980076 5.9106418,1.9958442 5.9495496,1.9059574 5.9495496,1.8648453 V 1.7979408 H 6.2546549 6.55976 V 2.5716002 3.3452597 H 5.9589777 c -0.5622136,0 -0.6000123,-0.00246 -0.5887884,-0.038138 z"
     id="path6" />
  <path
     style="fill:#ff0000;fill-opacity:1;stroke:#ff0000;stroke-width:0.0435864"
     d="m 6.5815532,14.318147 v -0.904419 l 1.2258688,-0.0026 c 0.6742277,-0.0014 1.5892823,-0.0088 2.0334548,-0.01635 l 0.8075862,-0.01378 0.173109,-0.08534 c 0.454947,-0.224291 0.841304,-0.849489 1.098744,-1.777977 0.108659,-0.391893 0.10116,-0.378114 0.118608,-0.217932 0.195206,1.792062 0.436318,2.903224 0.79729,3.674308 0.05993,0.128013 0.10896,0.236288 0.10896,0.240612 0,0.0043 -1.431815,0.0079 -3.1818104,0.0079 H 6.5815532 Z"
     id="path7" />
  <path
     style="fill:#ff0000;fill-opacity:1;stroke:#ff0000;stroke-width:0.0435864"
     d="m 5.9495496,15.104768 c 0,-0.127235 -0.00863,-0.153594 -0.097542,-0.297798 C 5.690686,14.545314 5.4987998,14.057473 5.3744803,13.592932 L 5.32069,13.391935 H 5.9402251 6.55976 v 0.926212 0.926212 H 6.2546549 5.9495496 Z"
     id="path8" />
  <path
     style="fill:#ff0000;fill-opacity:1;stroke:#ff0000;stroke-width:0.0435864"
     d="M 13.610213,15.087588 C 13.233945,14.669087 12.87647,13.338977 12.684509,11.643181 12.280822,8.0769883 12.629828,3.6204206 13.432285,2.0945853 13.53259,1.9038594 13.698675,1.710768 13.76242,1.710768 c 0.07442,0 0.242919,0.2089814 0.356995,0.4427714 0.948342,1.9435593 1.188518,7.6160925 0.469838,11.0967396 -0.178964,0.866742 -0.440431,1.576828 -0.677855,1.840899 -0.128443,0.142861 -0.169958,0.142366 -0.301185,-0.0036 z"
     id="path9" />
  <path
     style="fill:#ff0000;fill-opacity:1;stroke:#ffff00;stroke-width:0.164736;stroke-opacity:1"
     d="m 38.937235,48.248742 c -0.269666,-0.02812 -0.377003,-0.111392 -0.804971,-0.624506 -1.33151,-1.596418 -2.501308,-5.061174 -3.078203,-9.117157 -0.325624,-2.289369 -0.384377,-3.087439 -0.433563,-5.889318 -0.07893,-4.496295 0.27882,-8.034952 1.165826,-11.531649 0.68879,-2.715304 1.561563,-4.611185 2.603454,-5.655355 0.344106,-0.344858 0.432406,-0.389538 0.86795,-0.43918 0.266679,-0.03039 0.544032,-0.07145 0.616339,-0.09123 0.216191,-0.05914 0.926946,0.578326 1.387302,1.244254 1.345455,1.946271 2.399533,5.576698 2.929477,10.089631 0.298115,2.538714 0.30098,8.261042 0.0054,10.749035 -0.277776,2.337991 -0.60926,4.125427 -1.081456,5.831468 -0.6096,2.202482 -1.466567,4.016537 -2.331955,4.936357 l -0.524778,0.557786 -0.504823,-0.01385 c -0.277653,-0.0076 -0.644844,-0.02845 -0.81598,-0.04629 z"
     id="path10"
     transform="scale(0.26458334)" />
  <path
     style="fill:#ff0000;fill-opacity:1;stroke:#ff0000;stroke-width:0.164736;stroke-opacity:1"
     d="M 19.564718,48.288288 C 19.469104,47.86663 19.10391,45.544934 18.947065,44.361602 18.008778,37.282604 17.918433,28.877096 18.702206,21.580438 c 0.316443,-2.945975 0.892634,-6.523402 1.068151,-6.631878 0.174125,-0.107615 2.87581,-0.163489 7.905228,-0.163489 6.027359,0 8.31559,0.05931 8.376144,0.217113 0.02282,0.05947 -0.01956,0.169179 -0.09418,0.243799 -0.264352,0.264352 -1.20212,2.314093 -1.560273,3.410388 -1.196123,3.661298 -1.777311,7.941376 -1.778364,13.096525 -8.45e-4,4.138522 0.359328,7.484979 1.150459,10.689186 0.540349,2.188498 1.449926,4.564175 2.137628,5.583156 0.138925,0.205847 0.252591,0.390943 0.252591,0.411324 0,0.02038 -3.72439,0.03705 -8.276423,0.03705 h -8.276423 z"
     id="path11"
     transform="scale(0.26458334)" />
  <path
     style="fill:#ff0000;fill-opacity:1;stroke:#ff0000;stroke-width:0.164736;stroke-opacity:1"
     d="m 38.511602,47.835264 c -1.763127,-1.749867 -3.250179,-6.765968 -3.668878,-12.375805 -0.106915,-1.432476 -0.106874,-5.964767 6.7e-5,-7.454311 0.232398,-3.236985 0.738323,-6.035325 1.531224,-8.469412 0.592877,-1.820044 1.180148,-2.97042 1.941908,-3.803906 0.476063,-0.520888 0.58079,-0.576931 1.229619,-0.657996 0.450981,-0.05635 0.451346,-0.05621 0.885526,0.334156 1.316611,1.183747 2.411926,3.888074 3.178782,7.848393 0.359331,1.855716 0.53257,3.491984 0.634069,5.988872 0.341959,8.412285 -1.070585,15.605681 -3.634284,18.507641 l -0.345643,0.391248 h -0.720585 -0.720584 z"
     id="path12"
     transform="scale(0.26458334)" />
</svg>
