<?xml version="1.0" encoding="UTF-8" standalone="no"?>
<svg
   xmlns:dc="http://purl.org/dc/elements/1.1/"
   xmlns:cc="http://creativecommons.org/ns#"
   xmlns:rdf="http://www.w3.org/1999/02/22-rdf-syntax-ns#"
   xmlns:svg="http://www.w3.org/2000/svg"
   xmlns="http://www.w3.org/2000/svg"
   width="64"
   height="64"
   viewBox="0 0 16.933333 16.933334"
   version="1.1"
   id="svg904">
  <defs
     id="defs898" />
  <metadata
     id="metadata901">
    <rdf:RDF>
      <cc:Work
         rdf:about="">
        <dc:format>image/svg+xml</dc:format>
        <dc:type
           rdf:resource="http://purl.org/dc/dcmitype/StillImage" />
        <dc:title></dc:title>
      </cc:Work>
    </rdf:RDF>
  </metadata>
  <g
     id="layer1">
    <path
       style="fill:#ffff00;stroke:#000000;stroke-width:0.554446;stroke-miterlimit:4;stroke-dasharray:none;stroke-opacity:1"
       id="path862"
       d="m 14.175978,1.4113107 a 1.7418928,7.0291886 0 0 1 1.741893,7.0291886 1.7418928,7.0291886 0 0 1 -1.741893,7.0291887 V 8.4404993 Z" />
    <ellipse
       style="fill:#ffff00;stroke:#000000;stroke-width:0.574561;stroke-miterlimit:4;stroke-dasharray:none;stroke-opacity:1"
       id="path854"
       cx="2.5666006"
       cy="8.4570179"
       rx="1.5460418"
       ry="7.0486016" />
    <path
       style="fill:#ffff00;stroke:#000000;stroke-width:0.038951;stroke-miterlimit:4;stroke-dasharray:none;stroke-opacity:0"
       d="M 3.2521865,14.902745 C 3.5892222,13.704421 3.8000837,12.24869 3.9056987,10.391078 3.9554138,9.5166634 3.9556256,7.6984376 3.9061009,6.8175958 3.832231,5.5033881 3.6950979,4.3155688 3.5017954,3.3155831 3.4562042,3.0797333 3.3261117,2.5731919 3.2127003,2.1899359 L 3.006498,1.4931079 H 8.7715001 14.536503 V 8.4613985 15.42969 H 8.8202482 3.1039802 Z"
       id="path864" />
    <path
       style="fill:none;stroke:#000000;stroke-width:0.365;stroke-linecap:butt;stroke-linejoin:miter;stroke-miterlimit:4;stroke-dasharray:none;stroke-opacity:1"
       d="M 14.014946,1.3029389 H 2.5223562"
       id="path884" />
    <path
       style="fill:none;stroke:#000000;stroke-width:0.305;stroke-linecap:butt;stroke-linejoin:miter;stroke-opacity:1;stroke-miterlimit:4;stroke-dasharray:none"
       d="M 14.174703,15.582884 2.5904489,15.642752"
       id="path886" />
  </g>
</svg>
